<?xml version="1.0" encoding="utf-8"?>
<!-- Generator: Adobe Illustrator 18.1.1, SVG Export Plug-In . SVG Version: 6.00 Build 0)  -->
<svg version="1.1" id="NameLogo" xmlns="http://www.w3.org/2000/svg" xmlns:xlink="http://www.w3.org/1999/xlink" x="0px" y="0px"
	 viewBox="-265 364.5 64 64" enable-background="new -265 364.5 64 64" xml:space="preserve">
<g>
	<defs>
		<path id="SVGID_1_" d="M-206,428.5h-54c-2.8,0-5-2.3-5-5v-54c0-2.8,2.3-5,5-5h54c2.8,0,5,2.3,5,5v54
			C-201,426.3-203.2,428.5-206,428.5z"/>
	</defs>
	<clipPath id="SVGID_2_">
		<use xlink:href="#SVGID_1_"  overflow="visible"/>
	</clipPath>
	<g clip-path="url(#SVGID_2_)">
		
			<image overflow="visible" width="297" height="297" xlink:href="css/images/bright_squares.png"  transform="matrix(0.2155 0 0 0.2155 -264.9505 364.5)">
		</image>
	</g>
</g>
<g>
	<path id="letterI" fill="#1DADD9" d="M-254.6,377.6v-3h12.7v3h-4.2v37.8h4.2v3h-12.7v-3h4.2v-37.8H-254.6z"/>
	<path id="letterB" fill="#050505" d="M-224.5,418.4h-17.4v-3h3.6v-37.8h-3.6v-3h15c6.2,0,10.2,1.6,11.9,4.8
		c0.8,1.6,1.3,3.7,1.3,6.3c0,2.6-0.4,4.7-1.2,6.3c-0.8,1.6-2.3,2.9-4.6,3.7c3.2,0.6,5.4,1.8,6.5,3.7c1.1,1.9,1.7,4.3,1.7,7.3
		c0,4.6-1.2,7.7-3.5,9.4C-217,417.6-220.2,418.4-224.5,418.4z M-233.9,394.2h7.1c3.5,0,5.9-0.7,7-2c1.2-1.4,1.8-3.4,1.8-6
		c0-2.6-0.6-4.6-1.8-6c-1.2-1.3-3.5-2-7-2h-7.1V394.2z M-233.9,414.9h9.5c3.5,0,5.9-0.7,7.1-2.1c1.2-1.4,1.8-3.5,1.8-6.3
		c0-2.8-0.6-4.9-1.8-6.4c-1.2-1.5-3.5-2.2-7.1-2.2h-9.5C-233.9,397.8-233.9,414.9-233.9,414.9z"/>
</g>
</svg>
