<svg class="two columns offset-by-one" version="1.1" id="NameLogo" xmlns="http://www.w3.org/2000/svg" 
  xmlns:xlink="http://www.w3.org/1999/xlink" x="0px" y="0px"
  width="72.099px" height="73px" viewBox="0 0 72.099 73" 
  enable-background="new 0 0 72.099 73" xml:space="preserve">
      <path id="letterI" fill="#1DADD9" d="M0,5V0h21.2v5h-7v63h7v5H0v-5h7V5H0z"/>
      <path id="letterB" fill="#050505" d="M50.199,73h-29v-5h6V5h-6V0h25c10.333,0,16.933,2.667,19.8,8c1.4,2.667,2.1,6.15,2.1,10.45c0,4.3-0.667,7.817-2,10.55
        c-1.334,2.734-3.9,4.8-7.7,6.2c5.4,1,9.033,3.05,10.9,6.15c1.866,3.1,2.8,7.15,2.8,12.15c0,7.6-1.967,12.8-5.9,15.6
        C62.665,71.7,57.332,73,50.199,73z M34.399,32.6h11.8c5.866,0,9.783-1.133,11.75-3.4c1.966-2.266,2.95-5.6,2.95-10
        c0-4.4-0.984-7.716-2.95-9.95c-1.967-2.233-5.884-3.35-11.75-3.35h-11.8V32.6z M34.399,67.1h15.8c5.866,0,9.783-1.183,11.75-3.55
        c1.966-2.365,2.95-5.883,2.95-10.55c0-4.666-0.984-8.216-2.95-10.65c-1.967-2.433-5.884-3.65-11.75-3.65h-15.8V67.1z"/>
</svg>