<?xml version="1.0" encoding="utf-8"?>
<!-- Generator: Adobe Illustrator 18.0.0, SVG Export Plug-In . SVG Version: 6.00 Build 0)  -->
<!DOCTYPE svg PUBLIC "-//W3C//DTD SVG 1.1//EN" "http://www.w3.org/Graphics/SVG/1.1/DTD/svg11.dtd">
<svg version="1.1" id="NameLogo" xmlns="http://www.w3.org/2000/svg" xmlns:xlink="http://www.w3.org/1999/xlink" x="0px" y="0px"
	 viewBox="0 0 72.1 73" enable-background="new 0 0 72.1 73" xml:space="preserve">
<g id="XMLID_1_">
	<g>
	</g>
	<g>
		<polygon fill="none" stroke="#000000" stroke-miterlimit="10" points="0,5 0,0 21.2,0 21.2,5 14.2,5 14.2,68 21.2,68 21.2,73 
			0,73 0,68 7,68 7,5 		"/>
	</g>
</g>
<g>
	<path d="M46.2,1c9.9,0,16.3,2.5,18.9,7.5c1.3,2.5,2,5.9,2,10c0,4.1-0.6,7.5-1.9,10.1C64,31,61.6,33,58.1,34.3l-3.4,1.3l3.6,0.7
		c5.1,0.9,8.5,2.9,10.2,5.7c1.8,2.9,2.7,6.8,2.7,11.6c0,7.2-1.8,12.2-5.5,14.8c-3.3,2.5-8.5,3.7-15.4,3.7h-28v-3h5h1v-1V5V4h-1h-5V1
		H46.2 M33.4,33.6h1h11.8c6.2,0,10.3-1.2,12.5-3.7c2.1-2.4,3.2-6,3.2-10.7c0-4.6-1.1-8.2-3.2-10.6c-2.2-2.5-6.3-3.7-12.5-3.7H34.4
		h-1v1v26.7V33.6 M33.4,68.1h1h15.8c6.2,0,10.3-1.3,12.5-3.9c2.1-2.5,3.2-6.3,3.2-11.2c0-4.9-1.1-8.7-3.2-11.3
		c-2.2-2.7-6.3-4-12.5-4H34.4h-1v1v28.4V68.1 M46.2,0h-25v5h6v63h-6v5h29c7.1,0,12.5-1.3,16-3.9c3.9-2.8,5.9-8,5.9-15.6
		c0-5-0.9-9-2.8-12.1c-1.9-3.1-5.5-5.1-10.9-6.1c3.8-1.4,6.4-3.5,7.7-6.2c1.3-2.7,2-6.3,2-10.5c0-4.3-0.7-7.8-2.1-10.5
		C63.1,2.7,56.5,0,46.2,0L46.2,0z M34.4,32.6V5.9h11.8c5.9,0,9.8,1.1,11.8,3.4c2,2.2,3,5.5,3,10c0,4.4-1,7.7-3,10
		c-2,2.3-5.9,3.4-11.8,3.4H34.4L34.4,32.6z M34.4,67.1V38.7h15.8c5.9,0,9.8,1.2,11.8,3.6c2,2.4,3,6,3,10.6c0,4.7-1,8.2-3,10.5
		c-2,2.4-5.9,3.6-11.8,3.6H34.4L34.4,67.1z"/>
</g>
</svg>
